<?xml version="1.0" encoding="utf-8"?>
<!-- Generator: Adobe Illustrator 24.3.0, SVG Export Plug-In . SVG Version: 6.00 Build 0)  -->
<svg version="1.1" id="Layer_1" xmlns="http://www.w3.org/2000/svg" xmlns:xlink="http://www.w3.org/1999/xlink" x="0px" y="0px"
	 viewBox="0 0 195 50" style="enable-background:new 0 0 195 50;" xml:space="preserve">
<style type="text/css">
	.st0{fill:#88B789;}
	.st1{fill:#333333;}
	.st2{font-family:'Montserrat-ExtraBold';}
	.st3{font-size:7.8344px;}
</style>
<polygon class="st0" points="33.05,22.9 38.08,4.12 45.62,32.29 49.53,46.87 39.47,46.87 36.87,37.15 35.56,32.29 "/>
<path class="st1" d="M1.47,46.87l1.77-6.6l0.84-3.11h25.1c-1.88,5.32-6.75,9.22-12.6,9.67c-0.37,0.03-0.76,0.05-1.14,0.05H1.47z"/>
<path class="st0" d="M5.38,32.29l3.48-13.01l4.32-16.15h10.06l-4.04,15.08L16.7,27.6l-0.78,2.89c-0.28,1.06-1.25,1.8-2.35,1.8H5.38z
	"/>
<path class="st1" d="M29.18,37.15c0.15-0.4,0.27-0.8,0.37-1.22l0.98-3.64l2.52-9.39l5.03-18.78l-0.27-0.99h-9.53l-0.26,0.99v0
	l-4.33,16.14l-3.22,12.02l-0.26,0.89c0,0,0,0,0,0c-0.42,2.26-2.4,3.97-4.77,3.97H29.18z"/>
<g>
	<g>
		<path class="st1" d="M64.12,3.05v12.09h-3.5v-4.72h-4.78v4.72h-3.5V3.05h3.5v4.54h4.78V3.05H64.12z"/>
		<path class="st1" d="M74.18,6.69c0.84,0.71,1.26,1.79,1.26,3.26v5.2H72.3v-1.21c-0.48,0.91-1.43,1.36-2.83,1.36
			c-0.74,0-1.39-0.13-1.93-0.38c-0.54-0.25-0.95-0.6-1.23-1.03c-0.28-0.43-0.42-0.92-0.42-1.48c0-0.89,0.35-1.57,1.04-2.06
			c0.7-0.49,1.77-0.73,3.22-0.73h1.91c-0.06-0.99-0.74-1.49-2.04-1.49c-0.46,0-0.93,0.07-1.4,0.22c-0.47,0.14-0.87,0.34-1.2,0.6
			L66.3,6.71c0.53-0.35,1.18-0.61,1.94-0.8c0.76-0.19,1.53-0.28,2.29-0.28C72.13,5.62,73.34,5.98,74.18,6.69z M71.44,12.95
			c0.29-0.18,0.51-0.45,0.64-0.81v-0.81h-1.45c-0.98,0-1.47,0.32-1.47,0.95c0,0.29,0.11,0.52,0.34,0.69
			c0.22,0.17,0.53,0.26,0.92,0.26C70.8,13.22,71.14,13.13,71.44,12.95z"/>
		<path class="st1" d="M86.69,6.66c0.73,0.69,1.09,1.73,1.09,3.13v5.35h-3.36v-4.82c0-1.28-0.53-1.92-1.58-1.92
			c-0.58,0-1.04,0.18-1.39,0.55c-0.35,0.37-0.52,0.92-0.52,1.66v4.53h-3.36V5.78h3.2V6.8c0.38-0.38,0.83-0.67,1.35-0.87
			c0.52-0.2,1.09-0.3,1.7-0.3C85,5.62,85.96,5.97,86.69,6.66z"/>
		<path class="st1" d="M100.22,2.32v12.82h-3.2v-0.93c-0.63,0.73-1.56,1.09-2.81,1.09c-0.87,0-1.67-0.2-2.39-0.6
			c-0.72-0.4-1.29-0.96-1.71-1.7c-0.42-0.74-0.63-1.59-0.63-2.56s0.21-1.82,0.63-2.55s0.99-1.29,1.71-1.68
			c0.72-0.39,1.52-0.59,2.39-0.59c1.14,0,2.03,0.32,2.65,0.97V2.32H100.22z M96.34,12.09c0.38-0.4,0.57-0.95,0.57-1.65
			c0-0.69-0.19-1.23-0.56-1.62c-0.37-0.39-0.85-0.59-1.44-0.59c-0.59,0-1.07,0.2-1.45,0.59c-0.38,0.39-0.57,0.93-0.57,1.62
			c0,0.7,0.19,1.25,0.57,1.65c0.38,0.4,0.86,0.6,1.45,0.6C95.49,12.69,95.96,12.49,96.34,12.09z"/>
		<path class="st1" d="M117.7,6.66c0.7,0.69,1.05,1.73,1.05,3.13v5.35h-3.36v-4.82c0-0.66-0.12-1.14-0.38-1.45
			c-0.25-0.31-0.61-0.47-1.07-0.47c-0.51,0-0.92,0.17-1.22,0.52c-0.31,0.35-0.46,0.87-0.46,1.57v4.65h-3.36v-4.82
			c0-1.28-0.49-1.92-1.45-1.92c-0.52,0-0.93,0.17-1.24,0.52c-0.31,0.35-0.46,0.87-0.46,1.57v4.65h-3.36V5.78h3.2v0.98
			c0.36-0.38,0.78-0.67,1.27-0.85c0.49-0.19,1.02-0.28,1.6-0.28c0.67,0,1.28,0.12,1.81,0.36c0.53,0.24,0.96,0.61,1.29,1.11
			c0.38-0.47,0.86-0.83,1.43-1.09c0.58-0.25,1.21-0.38,1.89-0.38C116.05,5.62,117,5.97,117.7,6.66z"/>
		<path class="st1" d="M128.61,6.69c0.84,0.71,1.26,1.79,1.26,3.26v5.2h-3.13v-1.21c-0.48,0.91-1.43,1.36-2.83,1.36
			c-0.74,0-1.39-0.13-1.93-0.38c-0.54-0.25-0.95-0.6-1.23-1.03c-0.28-0.43-0.42-0.92-0.42-1.48c0-0.89,0.35-1.57,1.04-2.06
			c0.7-0.49,1.77-0.73,3.22-0.73h1.91c-0.06-0.99-0.74-1.49-2.04-1.49c-0.46,0-0.93,0.07-1.4,0.22c-0.47,0.14-0.87,0.34-1.2,0.6
			l-1.13-2.23c0.53-0.35,1.18-0.61,1.94-0.8c0.76-0.19,1.52-0.28,2.29-0.28C126.56,5.62,127.77,5.98,128.61,6.69z M125.87,12.95
			c0.3-0.18,0.51-0.45,0.64-0.81v-0.81h-1.45c-0.98,0-1.47,0.32-1.47,0.95c0,0.29,0.11,0.52,0.34,0.69
			c0.22,0.17,0.53,0.26,0.92,0.26C125.23,13.22,125.57,13.13,125.87,12.95z"/>
		<path class="st1" d="M142.33,2.32v12.82h-3.21v-0.93c-0.62,0.73-1.56,1.09-2.81,1.09c-0.87,0-1.67-0.2-2.39-0.6
			s-1.29-0.96-1.71-1.7c-0.42-0.74-0.63-1.59-0.63-2.56s0.21-1.82,0.63-2.55c0.42-0.73,0.99-1.29,1.71-1.68s1.52-0.59,2.39-0.59
			c1.15,0,2.03,0.32,2.66,0.97V2.32H142.33z M138.45,12.09c0.38-0.4,0.57-0.95,0.57-1.65c0-0.69-0.19-1.23-0.56-1.62
			c-0.37-0.39-0.85-0.59-1.44-0.59c-0.59,0-1.07,0.2-1.45,0.59c-0.38,0.39-0.57,0.93-0.57,1.62c0,0.7,0.19,1.25,0.57,1.65
			c0.38,0.4,0.86,0.6,1.45,0.6C137.6,12.69,138.08,12.49,138.45,12.09z"/>
		<path class="st1" d="M154.24,11.29h-6.97c0.14,0.48,0.41,0.85,0.82,1.11c0.41,0.26,0.92,0.39,1.53,0.39
			c0.46,0,0.86-0.06,1.19-0.19c0.34-0.13,0.68-0.33,1.02-0.62l1.77,1.8c-0.93,1.01-2.3,1.52-4.09,1.52c-1.12,0-2.11-0.21-2.96-0.62
			s-1.51-0.99-1.97-1.73c-0.47-0.74-0.7-1.57-0.7-2.5c0-0.92,0.23-1.75,0.68-2.48c0.45-0.73,1.08-1.3,1.89-1.72
			c0.8-0.41,1.7-0.62,2.71-0.62c0.96,0,1.82,0.19,2.6,0.58c0.78,0.39,1.4,0.94,1.85,1.68c0.45,0.73,0.68,1.6,0.68,2.6
			C154.3,10.5,154.28,10.77,154.24,11.29z M147.88,8.39c-0.35,0.29-0.57,0.68-0.66,1.18h3.93c-0.09-0.5-0.32-0.89-0.66-1.18
			c-0.35-0.29-0.78-0.43-1.3-0.43S148.23,8.1,147.88,8.39z"/>
		<path class="st1" d="M169.42,6.21c0.71,0.39,1.28,0.95,1.7,1.68c0.42,0.73,0.63,1.58,0.63,2.55s-0.21,1.82-0.63,2.56
			c-0.42,0.74-0.99,1.3-1.7,1.7c-0.71,0.4-1.51,0.6-2.38,0.6c-1.26,0-2.21-0.36-2.83-1.09v0.93h-3.2V2.32h3.36v4.27
			c0.65-0.65,1.54-0.97,2.67-0.97C167.92,5.62,168.71,5.82,169.42,6.21z M167.79,12.09c0.38-0.4,0.57-0.95,0.57-1.65
			c0-0.69-0.19-1.23-0.57-1.62c-0.38-0.39-0.86-0.59-1.45-0.59c-0.59,0-1.07,0.2-1.45,0.59c-0.38,0.39-0.57,0.93-0.57,1.62
			c0,0.7,0.19,1.25,0.57,1.65c0.38,0.4,0.86,0.6,1.45,0.6C166.92,12.69,167.41,12.49,167.79,12.09z"/>
		<path class="st1" d="M183.15,5.78l-4.14,9.74c-0.48,1.15-1.07,1.96-1.77,2.43c-0.7,0.47-1.54,0.7-2.55,0.7
			c-0.51,0-1.02-0.08-1.53-0.23c-0.51-0.16-0.93-0.36-1.25-0.61l1.17-2.3c0.19,0.17,0.42,0.31,0.68,0.41
			c0.27,0.1,0.53,0.15,0.8,0.15c0.32,0,0.58-0.06,0.79-0.19c0.21-0.13,0.38-0.33,0.52-0.6l-4.11-9.48h3.45l2.36,5.72l2.37-5.72
			H183.15z"/>
	</g>
	<g>
		<path class="st1" d="M60.64,24.88h3.1v5.01c-0.71,0.49-1.52,0.87-2.44,1.14c-0.92,0.26-1.84,0.4-2.76,0.4
			c-1.3,0-2.47-0.27-3.5-0.8c-1.04-0.54-1.85-1.28-2.44-2.24c-0.59-0.96-0.88-2.04-0.88-3.25c0-1.21,0.29-2.29,0.88-3.25
			c0.59-0.96,1.41-1.7,2.46-2.24c1.05-0.54,2.24-0.8,3.56-0.8c1.16,0,2.19,0.19,3.11,0.57c0.92,0.38,1.69,0.93,2.3,1.64l-2.23,1.97
			c-0.84-0.9-1.84-1.35-3.01-1.35c-1.06,0-1.92,0.31-2.57,0.94c-0.65,0.63-0.97,1.47-0.97,2.51c0,0.67,0.15,1.26,0.44,1.79
			c0.29,0.53,0.71,0.93,1.24,1.23c0.53,0.29,1.14,0.44,1.82,0.44c0.67,0,1.3-0.13,1.89-0.4V24.88z"/>
		<path class="st1" d="M75.56,27.33h-6.97c0.14,0.48,0.42,0.86,0.82,1.11s0.92,0.39,1.53,0.39c0.46,0,0.86-0.06,1.19-0.19
			c0.34-0.13,0.68-0.33,1.02-0.62l1.77,1.8c-0.93,1.01-2.3,1.52-4.09,1.52c-1.12,0-2.11-0.21-2.96-0.62
			c-0.85-0.42-1.51-0.99-1.97-1.73c-0.47-0.74-0.7-1.57-0.7-2.5c0-0.92,0.23-1.75,0.68-2.48c0.45-0.73,1.08-1.3,1.89-1.72
			c0.8-0.41,1.71-0.62,2.71-0.62c0.96,0,1.82,0.19,2.6,0.58c0.78,0.39,1.4,0.94,1.85,1.68c0.45,0.73,0.68,1.6,0.68,2.6
			C75.61,26.54,75.6,26.81,75.56,27.33z M69.2,24.43c-0.35,0.29-0.57,0.68-0.66,1.18h3.93c-0.09-0.5-0.32-0.89-0.66-1.18
			C71.45,24.14,71.02,24,70.5,24C69.98,24,69.54,24.14,69.2,24.43z"/>
		<path class="st1" d="M79.21,30.72c-0.83-0.42-1.47-0.99-1.94-1.73c-0.47-0.74-0.7-1.57-0.7-2.5c0-0.92,0.23-1.75,0.7-2.49
			c0.47-0.74,1.11-1.31,1.93-1.72c0.82-0.41,1.75-0.61,2.79-0.61c1.04,0,1.97,0.2,2.8,0.61c0.83,0.41,1.47,0.98,1.93,1.71
			c0.46,0.73,0.69,1.56,0.69,2.5c0,0.93-0.23,1.77-0.69,2.5c-0.46,0.74-1.1,1.31-1.93,1.73c-0.83,0.41-1.76,0.62-2.8,0.62
			C80.96,31.34,80.03,31.13,79.21,30.72z M83.44,28.13c0.38-0.4,0.57-0.95,0.57-1.65c0-0.69-0.19-1.23-0.57-1.62
			c-0.38-0.39-0.86-0.59-1.45-0.59s-1.07,0.2-1.45,0.59s-0.57,0.93-0.57,1.62c0,0.7,0.19,1.25,0.57,1.65c0.38,0.4,0.86,0.6,1.45,0.6
			S83.06,28.53,83.44,28.13z"/>
		<path class="st1" d="M93.5,21.98c0.55-0.21,1.18-0.32,1.89-0.32v2.95c-0.31-0.03-0.56-0.05-0.76-0.05c-0.72,0-1.28,0.19-1.69,0.57
			c-0.41,0.38-0.61,0.96-0.61,1.74v4.3h-3.36v-9.36h3.2v1.12C92.51,22.52,92.95,22.2,93.5,21.98z"/>
		<path class="st1" d="M107,21.82v7.65c0,1.74-0.48,3.04-1.45,3.91c-0.97,0.87-2.36,1.3-4.18,1.3c-0.94,0-1.83-0.1-2.65-0.31
			c-0.83-0.21-1.53-0.51-2.11-0.92l1.22-2.3c0.39,0.31,0.88,0.56,1.48,0.73c0.6,0.18,1.18,0.27,1.76,0.27
			c0.88,0,1.53-0.19,1.95-0.57c0.41-0.38,0.62-0.94,0.62-1.69v-0.31c-0.65,0.74-1.6,1.11-2.85,1.11c-0.85,0-1.63-0.19-2.35-0.56
			c-0.72-0.37-1.29-0.9-1.72-1.59c-0.43-0.69-0.64-1.48-0.64-2.38c0-0.89,0.21-1.67,0.64-2.36c0.42-0.69,1-1.21,1.72-1.59
			s1.5-0.56,2.35-0.56c1.37,0,2.37,0.43,3.01,1.3v-1.14H107z M103.08,27.55c0.39-0.36,0.59-0.82,0.59-1.38
			c0-0.56-0.19-1.02-0.58-1.37c-0.39-0.35-0.89-0.53-1.5-0.53c-0.61,0-1.12,0.18-1.51,0.53c-0.4,0.35-0.59,0.81-0.59,1.37
			c0,0.56,0.2,1.02,0.6,1.38s0.9,0.54,1.5,0.54S102.68,27.91,103.08,27.55z"/>
		<path class="st1" d="M109.35,20.28c-0.38-0.33-0.57-0.75-0.57-1.24s0.19-0.91,0.57-1.24c0.38-0.33,0.87-0.5,1.49-0.5
			c0.61,0,1.11,0.16,1.49,0.48c0.38,0.32,0.57,0.72,0.57,1.22c0,0.52-0.19,0.95-0.57,1.29c-0.38,0.34-0.87,0.51-1.49,0.51
			C110.23,20.78,109.73,20.62,109.35,20.28z M109.16,21.82h3.36v9.36h-3.36V21.82z"/>
		<path class="st1" d="M122.43,22.73c0.84,0.71,1.26,1.79,1.26,3.26v5.2h-3.13v-1.21c-0.48,0.91-1.43,1.36-2.83,1.36
			c-0.74,0-1.39-0.13-1.93-0.38c-0.54-0.25-0.95-0.6-1.23-1.03c-0.28-0.43-0.42-0.92-0.42-1.48c0-0.89,0.35-1.57,1.04-2.06
			c0.7-0.49,1.77-0.73,3.22-0.73h1.91c-0.06-0.99-0.74-1.49-2.04-1.49c-0.46,0-0.93,0.07-1.4,0.22c-0.47,0.14-0.87,0.34-1.2,0.6
			l-1.13-2.23c0.53-0.35,1.18-0.61,1.94-0.8c0.76-0.19,1.52-0.28,2.29-0.28C120.38,21.66,121.59,22.02,122.43,22.73z M119.69,28.99
			c0.3-0.18,0.51-0.45,0.64-0.81v-0.81h-1.45c-0.98,0-1.47,0.32-1.47,0.95c0,0.29,0.11,0.52,0.34,0.69
			c0.22,0.17,0.53,0.26,0.92,0.26C119.05,29.26,119.39,29.17,119.69,28.99z"/>
	</g>
</g>
<g>
	<rect x="51.7" y="36.6" class="st0" width="128.55" height="1.1"/>
</g>
<text transform="matrix(1 0 0 1 53.537 46.3751)" class="st1 st2 st3">AJHANDMADE.COM</text>
</svg>
