<?xml version="1.0" encoding="utf-8"?>
<!-- Generator: Adobe Illustrator 24.3.0, SVG Export Plug-In . SVG Version: 6.00 Build 0)  -->
<svg version="1.1" id="Layer_1" xmlns="http://www.w3.org/2000/svg" xmlns:xlink="http://www.w3.org/1999/xlink" x="0px" y="0px"
	 viewBox="0 0 195 50" style="enable-background:new 0 0 195 50;" xml:space="preserve">
<style type="text/css">
	.st0{fill:#88B789;}
	.st1{fill:#333333;}
	.st2{enable-background:new    ;}
</style>
<g>
	<polygon class="st0" points="33.6314316,22.7378922 39.0488014,2.5116267 47.1694603,32.8510246 51.3805733,48.5538445 
		40.545845,48.5538445 37.7456131,38.0853004 36.3347321,32.8510246 	"/>
	<path class="st0" d="M3.8305416,32.8510246l3.7479982-14.0119114l4.6526871-17.3937263H23.065958l-4.3511257,16.2413235
		l-2.6925259,10.1131306l-0.8400688,3.1125622c-0.3015623,1.1416321-1.3462639,1.9386177-2.5309753,1.9386177
		C12.6512623,32.8510208,3.8305416,32.8510208,3.8305416,32.8510246z"/>
	<path class="st1" d="M38.758007,1.4730004H28.4941254l-0.2800331,1.0662299l-4.6634808,17.3829689l-3.4680061,12.9456902
		l-0.2799702,0.9584885c-0.4482536,2.4118996-2.5476475,4.2365189-5.0691996,4.2696571H2.4304488l-0.9047215,3.349556
		l-1.9063309,7.1082535v0.0107689h15.0458746c0.4092646,0,0.8293209-0.0215607,1.2278032-0.0538406
		c6.2981873-0.4844704,11.5414543-4.682209,13.5678825-10.4086304h0.0024357v0.0107841
		c0.1615734-0.4308281,0.2908134-0.8616638,0.3984947-1.3139877l1.0555134-3.9203339l2.7140236-10.1130772l5.4173965-20.2262974
		L38.758007,1.4730004z"/>
</g>
<g>
	<g>
		<path class="st1" d="M70.3850098,3.05v12.0900002h-3.5v-4.7200003H62.105011v4.7199993h-3.5V3.05h3.5v4.54h4.7799988V3.05
			H70.3850098z"/>
		<path class="st1" d="M80.4450073,6.6900001c0.8399963,0.71,1.2600021,1.7899995,1.2600021,3.2599998v5.1999998h-3.1399994v-1.21
			c-0.4800034,0.9099998-1.4300003,1.3599997-2.8300018,1.3599997c-0.7399979,0-1.3899994-0.1300001-1.9300003-0.3800001
			s-0.9499969-0.6000004-1.2300034-1.0299997c-0.2799988-0.4300003-0.4199982-0.9200001-0.4199982-1.4799995
			c0-0.8900003,0.3499985-1.5699997,1.0400009-2.0599995c0.6999969-0.4899998,1.7699966-0.7299995,3.2200012-0.7299995h1.9100037
			c-0.0599976-0.9899998-0.7399979-1.4899998-2.0400009-1.4899998c-0.4599991,0-0.9300003,0.0699997-1.4000015,0.2200003
			c-0.4700012,0.1400003-0.8700027,0.3400002-1.1999969,0.6000004l-1.1200027-2.2399998
			c0.5299988-0.3499999,1.1800003-0.6100001,1.9400024-0.8000002s1.5299988-0.2800002,2.2900009-0.2800002
			C78.3949966,5.6199999,79.6050034,5.98,80.4450073,6.6900001z M77.7050095,12.9499998
			c0.2900009-0.1800003,0.5100021-0.4499998,0.6399994-0.8100004V11.329999h-1.4499969
			c-0.9800034,0-1.4700012,0.3199997-1.4700012,0.9499998c0,0.29,0.1100006,0.5200005,0.3399963,0.6899996
			c0.2200012,0.1700001,0.5299988,0.2600002,0.9199982,0.2600002
			C77.0650101,13.2200003,77.4050064,13.1300001,77.7050095,12.9499998z"/>
		<path class="st1" d="M92.9550095,6.6599998C93.6850128,7.3499999,94.0450058,8.3899994,94.0450058,9.79v5.3499994h-3.3600006
			v-4.8199997c0-1.2799997-0.5299988-1.9200001-1.5800018-1.9200001c-0.5800018,0-1.0400009,0.1800003-1.3899994,0.5500002
			s-0.5199966,0.9200001-0.5199966,1.6599998v4.5299997h-3.3600006V5.7800002h3.1999969v1.02
			c0.3799973-0.3800001,0.8300018-0.6700001,1.3499985-0.8699999s1.0899963-0.3000002,1.6999969-0.3000002
			C91.265007,5.6199999,92.2250137,5.9699998,92.9550095,6.6599998z"/>
		<path class="st1" d="M106.4850082,2.3199999v12.8199997h-3.1999969v-0.9300003
			c-0.6299973,0.7299995-1.5599976,1.0900002-2.8099976,1.0900002c-0.8700027,0-1.6699982-0.1999998-2.3899994-0.6000004
			c-0.7200012-0.3999996-1.2900009-0.96-1.7099991-1.6999998s-0.6299973-1.5900002-0.6299973-2.5600004
			s0.2099991-1.8199997,0.6299973-2.5500002s0.9899979-1.29,1.7099991-1.6799998s1.5199966-0.5900002,2.3899994-0.5900002
			c1.1399994,0,2.0299988,0.3200002,2.6500015,0.9699998V2.3199999H106.4850082z M102.6050034,12.0900002
			c0.3799973-0.3999996,0.5699997-0.9499998,0.5699997-1.6499996c0-0.6899996-0.1900024-1.2299995-0.5599976-1.6199999
			c-0.3700027-0.3900003-0.8499985-0.5900002-1.4400024-0.5900002c-0.5899963,0-1.0699997,0.1999998-1.4499969,0.5900002
			s-0.5699997,0.9300003-0.5699997,1.6199999c0,0.6999998,0.1900024,1.25,0.5699997,1.6499996
			s0.8600006,0.6000004,1.4499969,0.6000004C101.7549973,12.6899996,102.2250137,12.4899998,102.6050034,12.0900002z"/>
		<path class="st1" d="M123.9649963,6.6599998c0.6999969,0.6900001,1.0500031,1.7299995,1.0500031,3.1300001v5.3499994h-3.3600006
			v-4.8199997c0-0.6599998-0.1200027-1.1400003-0.3799973-1.4499998c-0.25-0.3100004-0.6100006-0.4700003-1.0699997-0.4700003
			c-0.5100021,0-0.9199982,0.1700001-1.2200012,0.5200005c-0.3099976,0.3500004-0.4599991,0.8699999-0.4599991,1.5699997v4.6499996
			h-3.3600006v-4.8199997c0-1.2799997-0.4899979-1.9200001-1.4499969-1.9200001
			c-0.5199966,0-0.9300003,0.1700001-1.2399979,0.5200005S112.015007,9.79,112.015007,10.4899998v4.6499996h-3.3600006V5.7800002
			h3.1999969v0.98c0.3600006-0.3800001,0.7799988-0.6700001,1.2699966-0.8499999
			c0.4899979-0.1900001,1.0199966-0.2800002,1.5999985-0.2800002c0.6699982,0,1.2799988,0.1199999,1.8099976,0.3600001
			c0.5299988,0.2399998,0.9599991,0.6100001,1.2900009,1.1100001c0.3799973-0.4699998,0.8600006-0.8299999,1.4300003-1.0900002
			c0.5800018-0.25,1.2099991-0.3800001,1.8899994-0.3800001C122.3150101,5.6199999,123.265007,5.9699998,123.9649963,6.6599998z"/>
		<path class="st1" d="M134.875,6.6900001c0.8399963,0.71,1.2599945,1.7899995,1.2599945,3.2599998v5.1999998h-3.1299896v-1.21
			c-0.480011,0.9099998-1.4300079,1.3599997-2.8300018,1.3599997c-0.7400055,0-1.3899994-0.1300001-1.9300079-0.3800001
			c-0.5399933-0.25-0.9499893-0.6000004-1.2300034-1.0299997c-0.2799988-0.4300003-0.4199982-0.9200001-0.4199982-1.4799995
			c0-0.8900003,0.3499985-1.5699997,1.0400009-2.0599995c0.6999969-0.4899998,1.7700043-0.7299995,3.219986-0.7299995h1.9100037
			c-0.0599976-0.9899998-0.7399902-1.4899998-2.0399933-1.4899998c-0.4600067,0-0.9300079,0.0699997-1.4000092,0.2200003
			c-0.4700012,0.1400003-0.8699951,0.3400002-1.1999969,0.6000004l-1.1299896-2.23
			c0.5299988-0.3499999,1.1799927-0.6100001,1.9400024-0.8000002c0.7599945-0.1900001,1.519989-0.2800002,2.2899933-0.2800002
			C132.8249969,5.6199999,134.0350037,5.98,134.875,6.6900001z M132.1350098,12.9499998
			c0.3000031-0.1800003,0.5099945-0.4499998,0.6399994-0.8100004V11.329999h-1.4499969
			c-0.980011,0-1.4700012,0.3199997-1.4700012,0.9499998c0,0.29,0.1100006,0.5200005,0.3399963,0.6899996
			c0.2200012,0.1700001,0.5299988,0.2600002,0.9199982,0.2600002
			C131.4950104,13.2200003,131.8350067,13.1300001,132.1350098,12.9499998z"/>
		<path class="st1" d="M148.5950012,2.3199999v12.8199997h-3.2100067v-0.9300003
			c-0.6199951,0.7299995-1.5599976,1.0900002-2.8099976,1.0900002c-0.8699951,0-1.6699982-0.1999998-2.3899994-0.6000004
			s-1.2899933-0.96-1.7100067-1.6999998c-0.4199982-0.7399998-0.6300049-1.5900002-0.6300049-2.5600004
			s0.2100067-1.8199997,0.6300049-2.5500002S139.4649963,6.5999999,140.1849976,6.21s1.5200043-0.5900002,2.3899994-0.5900002
			c1.1499939,0,2.0299988,0.3200002,2.6600037,0.9700003V2.3199999H148.5950012z M144.7149963,12.0900002
			c0.3800049-0.3999996,0.5700073-0.9499998,0.5700073-1.6499996c0-0.6899996-0.1900024-1.2299995-0.5599976-1.6199999
			S143.875,8.2300005,143.2850037,8.2300005s-1.0700073,0.1999998-1.4499969,0.5900002
			c-0.3800049,0.3900003-0.5700073,0.9300003-0.5700073,1.6199999c0,0.6999998,0.1900024,1.25,0.5700073,1.6499996
			s0.8600006,0.6000004,1.4499969,0.6000004C143.8650055,12.6899996,144.3450012,12.4899998,144.7149963,12.0900002z"/>
		<path class="st1" d="M160.5050049,11.29h-6.9700012c0.1399994,0.4799995,0.4100037,0.8500004,0.8200073,1.1099997
			C154.7650146,12.6599998,155.2750092,12.79,155.8850098,12.79c0.4600067,0,0.8600006-0.0600004,1.1900024-0.1899996
			c0.3399963-0.1300001,0.6799927-0.3299999,1.0200043-0.6199999l1.7700043,1.8000002
			c-0.9299927,1.0100002-2.3000031,1.5200005-4.0899963,1.5200005c-1.1199951,0-2.1100006-0.21-2.9600067-0.6199999
			s-1.5099945-0.9899998-1.9700012-1.7300005c-0.4700012-0.7399998-0.6999969-1.5699997-0.6999969-2.5
			c0-0.9200001,0.2299957-1.75,0.6799927-2.48s1.0800018-1.2999997,1.8899994-1.7199998
			c0.8000031-0.4099998,1.6999969-0.6199999,2.7100067-0.6199999c0.9600067,0,1.8200073,0.1900001,2.6000061,0.5799999
			s1.3999939,0.9400001,1.8500061,1.6799998c0.4499969,0.73,0.6799927,1.5999999,0.6799927,2.5999999
			C160.5650024,10.5,160.5449982,10.7700005,160.5050049,11.29z M154.1450043,8.3900003
			c-0.3500061,0.29-0.5700073,0.6800003-0.6600037,1.1800003h3.9299927c-0.0899963-0.5-0.3200073-0.8900003-0.6600037-1.1800003
			c-0.3500061-0.29-0.7799988-0.4299998-1.3000031-0.4299998S154.4949951,8.1000004,154.1450043,8.3900003z"/>
		<path class="st1" d="M175.6849976,6.21c0.7100067,0.3899999,1.2799988,0.9499998,1.6999969,1.6799998
			s0.6300049,1.5800004,0.6300049,2.5499997S177.8049927,12.2599993,177.3849945,13
			c-0.4199982,0.7399998-0.9900055,1.3000002-1.6999969,1.6999998c-0.7100067,0.3999996-1.5099945,0.6000004-2.3800049,0.6000004
			c-1.2599945,0-2.2100067-0.3599997-2.8300018-1.0900002v0.9300003h-3.1999969V2.3199999h3.3600006v4.2700005
			c0.6499939-0.6500001,1.5399933-0.9700003,2.6699982-0.9700003C174.1849976,5.6199999,174.9750061,5.8200002,175.6849976,6.21z
			 M174.0549927,12.0900002c0.3800049-0.3999996,0.5700073-0.9499998,0.5700073-1.6499996
			c0-0.6899996-0.1900024-1.2299995-0.5700073-1.6199999s-0.8600006-0.5900002-1.4499969-0.5900002
			s-1.0700073,0.1999998-1.4499969,0.5900002c-0.3800049,0.3900003-0.5700073,0.9300003-0.5700073,1.6199999
			c0,0.6999998,0.1900024,1.25,0.5700073,1.6499996s0.8600006,0.6000004,1.4499969,0.6000004
			C173.1849976,12.6899996,173.6750031,12.4899998,174.0549927,12.0900002z"/>
		<path class="st1" d="M189.4149933,5.7800002l-4.1399994,9.7399998c-0.4799957,1.1499996-1.0700073,1.9599991-1.7700043,2.4300003
			c-0.6999969,0.4699993-1.5399933,0.7000008-2.5500031,0.7000008c-0.5099945,0-1.0200043-0.0799999-1.5299988-0.2299995
			c-0.5099945-0.1599998-0.9299927-0.3600006-1.25-0.6100006l1.1699982-2.3000002
			c0.1900024,0.1700001,0.4199982,0.3100004,0.6799927,0.4099998c0.2700043,0.0999994,0.5299988,0.1500006,0.8000031,0.1500006
			c0.3200073,0,0.5800018-0.0599995,0.7899933-0.1899996c0.2100067-0.1300001,0.3800049-0.3299999,0.5200043-0.6000004
			l-4.1100006-9.4799995h3.4499969l2.3600006,5.7200003l2.3699951-5.7199998h3.210022V5.7800002z"/>
	</g>
	<g>
		<path class="st1" d="M66.9050064,24.8799992h3.0999985v5.0100002c-0.7099991,0.4899998-1.5199966,0.8700008-2.4400024,1.1399994
			c-0.9199982,0.2600002-1.8399963,0.3999996-2.7599869,0.3999996c-1.2999992,0-2.4700012-0.2700005-3.5-0.7999992
			c-1.0400009-0.5400009-1.8499985-1.2800007-2.4399986-2.2399998s-0.8800011-2.0400009-0.8800011-3.25
			s0.2900009-2.2900009,0.8800011-3.25s1.4099998-1.7000008,2.4599991-2.2399998
			c1.0499992-0.5400009,2.2400093-0.7999992,3.560009-0.7999992c1.1600037,0,2.1899872,0.1900005,3.1100006,0.5699997
			c0.9199982,0.3799992,1.6899872,0.9300003,2.3000031,1.6399994l-2.2300034,1.9699993
			c-0.8399963-0.8999996-1.8399963-1.3500004-3.0099869-1.3500004c-1.060009,0-1.9199982,0.3099995-2.5699997,0.9400005
			c-0.6500015,0.6299992-0.9700012,1.4699993-0.9700012,2.5100002c0,0.6700001,0.1500015,1.2600002,0.439991,1.789999
			c0.2900009,0.5300007,0.7099991,0.9300003,1.2400093,1.2299995c0.5299988,0.2900009,1.1399994,0.4400005,1.8199997,0.4400005
			c0.6699982,0,1.3000031-0.1299992,1.8899994-0.3999996C66.9050064,28.1900005,66.9050064,24.8799992,66.9050064,24.8799992z"/>
		<path class="st1" d="M81.8249969,27.3299999h-6.9700012c0.1399994,0.4799995,0.4199982,0.8600006,0.8199997,1.1100006
			s0.9199982,0.3899994,1.5299988,0.3899994c0.4599991,0,0.8600006-0.0599995,1.1900024-0.1900005
			c0.3399963-0.1299992,0.6800003-0.3299999,1.0199966-0.6200008l1.7699966,1.7999992
			c-0.9300003,1.0100002-2.3000031,1.5200005-4.090004,1.5200005c-1.1200027,0-2.1100006-0.2099991-2.9599991-0.6200008
			c-0.8499985-0.4200001-1.5100021-0.9899998-1.9700012-1.7299995c-0.4700012-0.7399998-0.6999969-1.5699997-0.6999969-2.5
			c0-0.9200001,0.2300034-1.75,0.6800003-2.4799995s1.0800018-1.2999992,1.8899994-1.7199993
			c0.8000031-0.4099998,1.7099991-0.6200008,2.7099991-0.6200008c0.9599991,0,1.8199997,0.1900005,2.5999985,0.5799999
			s1.4000015,0.9400005,1.8499985,1.6800003c0.4499969,0.7299995,0.6800003,1.6000004,0.6800003,2.6000004
			C81.8750076,26.5400009,81.8650131,26.8099995,81.8249969,27.3299999z M75.4649963,24.4300003
			c-0.3499985,0.2900009-0.5699997,0.6800003-0.6600037,1.1800003h3.9300003
			c-0.0899963-0.5-0.3199997-0.8899994-0.6600037-1.1800003C77.7149963,24.1399994,77.2850037,24,76.765007,24
			S75.8050079,24.1399994,75.4649963,24.4300003z"/>
		<path class="st1" d="M85.4750137,30.7199993c-0.8300018-0.4200001-1.4700012-0.9899998-1.9400024-1.7299995
			s-0.6999969-1.5699997-0.6999969-2.5c0-0.9200001,0.2300034-1.75,0.6999969-2.4899998
			c0.4700012-0.7399998,1.1100006-1.3099995,1.9300003-1.7199993s1.75-0.6100006,2.7900009-0.6100006
			s1.9700012,0.2000008,2.8000031,0.6100006s1.4700012,0.9799995,1.9300003,1.710001
			c0.4599991,0.7299995,0.6900024,1.5599995,0.6900024,2.5c0,0.9300003-0.2300034,1.7700005-0.6900024,2.5
			c-0.4599991,0.7399998-1.0999985,1.3099995-1.9300003,1.7299995c-0.8300018,0.4099998-1.7600021,0.6200008-2.8000031,0.6200008
			C87.2250137,31.3400002,86.2950134,31.1299992,85.4750137,30.7199993z M89.7050095,28.1299992
			c0.3799973-0.3999996,0.5699997-0.9500008,0.5699997-1.6499996c0-0.6900005-0.1900024-1.2299995-0.5699997-1.6200008
			c-0.3799973-0.3899994-0.8600006-0.5900002-1.4499969-0.5900002s-1.0699997,0.2000008-1.4499969,0.5900002
			s-0.5699997,0.9300003-0.5699997,1.6200008c0,0.7000008,0.1900024,1.25,0.5699997,1.6499996
			s0.8600006,0.6000004,1.4499969,0.6000004S89.3249969,28.5300007,89.7050095,28.1299992z"/>
		<path class="st1" d="M99.765007,21.9799995c0.5500031-0.2099991,1.1800003-0.3199997,1.8899994-0.3199997v2.9500008
			c-0.3099976-0.0300007-0.5599976-0.0499992-0.7600021-0.0499992c-0.7200012,0-1.2799988,0.1900005-1.6900024,0.5699997
			s-0.6100006,0.9599991-0.6100006,1.7399998v4.3000011h-3.3600006v-9.3600006h3.1999969v1.1200008
			C98.7750092,22.5200005,99.2149963,22.2000008,99.765007,21.9799995z"/>
		<path class="st1" d="M113.265007,21.8199997v7.6499996c0,1.7399998-0.4800034,3.039999-1.4499969,3.9100018
			c-0.9700012,0.8699989-2.3600006,1.2999992-4.1800003,1.2999992c-0.9400024,0-1.8300018-0.0999985-2.6500015-0.3100014
			c-0.8300018-0.2099991-1.5299988-0.5099983-2.1100006-0.9199982l1.2200012-2.2999992
			c0.3899994,0.3099995,0.8799973,0.5599995,1.4800034,0.7299995c0.5999985,0.1800003,1.1800003,0.2700005,1.7600021,0.2700005
			c0.8799973,0,1.5299988-0.1900005,1.9499969-0.5699997c0.4100037-0.3799992,0.6200027-0.9400005,0.6200027-1.6900005v-0.3099995
			c-0.6500015,0.7399998-1.5999985,1.1100006-2.8499985,1.1100006c-0.8499985,0-1.6299973-0.1900005-2.3499985-0.5599995
			c-0.7200012-0.3700008-1.2900009-0.8999996-1.7200012-1.5900002s-0.6399994-1.4799995-0.6399994-2.3799992
			c0-0.8899994,0.2099991-1.6700001,0.6399994-2.3600006c0.4199982-0.6900005,1-1.2099991,1.7200012-1.5900002
			s1.5-0.5599995,2.3499985-0.5599995c1.3700027,0,2.3700027,0.4300003,3.0100021,1.2999992v-1.1399994h3.1999893V21.8199997z
			 M109.3450089,27.5499992c0.3899994-0.3600006,0.5899963-0.8199997,0.5899963-1.3799992s-0.1900024-1.0200005-0.5800018-1.3700008
			s-0.8899994-0.5300007-1.5-0.5300007s-1.1200027,0.1800003-1.5100021,0.5300007
			c-0.4000015,0.3500004-0.5899963,0.8099995-0.5899963,1.3700008c0,0.5599995,0.1999969,1.0200005,0.5999985,1.3799992
			s0.9000015,0.5400009,1.5,0.5400009S108.9450073,27.9099998,109.3450089,27.5499992z"/>
		<path class="st1" d="M115.6150131,20.2800007c-0.3799973-0.3299999-0.5699997-0.75-0.5699997-1.2399998
			s0.1900024-0.9099998,0.5699997-1.2399998s0.8700027-0.5,1.4899979-0.5c0.6100006,0,1.1100006,0.1599998,1.4899979,0.4799995
			S119.1650085,18.5,119.1650085,19c0,0.5200005-0.1900024,0.9500008-0.5699997,1.2900009s-0.8700027,0.5100002-1.4899979,0.5100002
			C116.4950104,20.7800007,115.9950104,20.6200008,115.6150131,20.2800007z M115.4250107,21.8199997h3.3600006v9.3600006h-3.3600006
			V21.8199997z"/>
		<path class="st1" d="M128.6950073,22.7299995c0.8399963,0.7099991,1.2599945,1.7900009,1.2599945,3.2600002v5.1999989h-3.1299896
			v-1.2099991c-0.4800034,0.9099998-1.4300003,1.3600006-2.8300018,1.3600006c-0.7399979,0-1.3899994-0.1299992-1.9300003-0.3799992
			s-0.9499969-0.6000004-1.2300034-1.0300007c-0.2799988-0.4300003-0.4199982-0.9200001-0.4199982-1.4799995
			c0-0.8899994,0.3499985-1.5699997,1.0400009-2.0599995c0.6999969-0.4899998,1.7699966-0.7299995,3.2200012-0.7299995h1.9100037
			c-0.0599976-0.9899998-0.7399979-1.4899998-2.0400009-1.4899998c-0.4599991,0-0.9300003,0.0699997-1.4000015,0.2199993
			c-0.4700012,0.1399994-0.8700027,0.3400002-1.1999969,0.6000004l-1.1299973-2.2299995
			c0.5299988-0.3500004,1.1800003-0.6100006,1.9400024-0.7999992c0.7600021-0.1900005,1.5199966-0.2800007,2.2900009-0.2800007
			C126.6449966,21.6599998,127.8550034,22.0200005,128.6950073,22.7299995z M125.9550095,28.9899998
			c0.3000031-0.1800003,0.5100021-0.4500008,0.6399994-0.8099995v-0.8099995h-1.4499969
			c-0.9800034,0-1.4700012,0.3199997-1.4700012,0.9500008c0,0.2900009,0.1100006,0.5200005,0.3399963,0.6900005
			c0.2200012,0.1700001,0.5299988,0.2600002,0.9199982,0.2600002
			C125.3150101,29.2600002,125.6550064,29.1700001,125.9550095,28.9899998z"/>
	</g>
</g>
<g>
	<rect x="57.9650002" y="36.5999985" class="st0" width="128.5500031" height="1.0999985"/>
</g>
<g class="st2">
	<path class="st1" d="M57.9848595,48.4005356l3.6227608-8.2071877h2.286232l3.6347198,8.2071915h-2.4155502l-2.8371391-7.0700607
		h0.9143791l-2.8371391,7.0700607C60.3531227,48.4005394,57.9848595,48.4005394,57.9848595,48.4005356z M59.966301,46.8064957
		l0.5976181-1.7125397h4.01017l0.5976181,1.7125397H59.966301z"/>
	<path class="st1" d="M70.1543579,48.5646133c-0.6016083,0-1.1468201-0.1036911-1.6356277-0.3110619
		c-0.4882431-0.2062302-0.8927307-0.5059013-1.2134705-0.8967209l1.2664566-1.5006104
		c0.2187729,0.2814293,0.4455109,0.4944992,0.6802292,0.6392097c0.2341537,0.1446991,0.4802628,0.2164917,0.7383423,0.2164917
		c0.6876297,0,1.0317307-0.3987999,1.0317307-1.19524v-3.528759h-2.8371429v-1.7945709h5.1353378v5.1820488
		c0,1.0710487-0.2700424,1.8697815-0.8089828,2.3984604C71.9717331,48.3014145,71.1860962,48.5646133,70.1543579,48.5646133z"/>
	<path class="st1" d="M74.8914566,48.4005356v-8.2071877h2.3209763v8.2071915
		C77.2124329,48.4005394,74.8914566,48.4005394,74.8914566,48.4005356z M77.048378,45.1999245v-1.9233208h3.4940033v1.9233284
		C80.5423813,45.1999321,77.048378,45.1999321,77.048378,45.1999245z M80.3783112,48.4005356v-8.2071877h2.3209839v8.2071915
		C82.699295,48.4005394,80.3783112,48.4005394,80.3783112,48.4005356z"/>
	<path class="st1" d="M83.356163,48.4005356l3.622757-8.2071877h2.286232l3.6347275,8.2071915h-2.4155579l-2.8371429-7.0700607
		h0.9143829l-2.8371429,7.0700607C85.7244186,48.4005394,83.356163,48.4005394,83.356163,48.4005356z M85.3376007,46.8064957
		l0.5976334-1.7125397h4.0101624l0.5976181,1.7125397H85.3376007z"/>
	<path class="st1" d="M93.5561829,48.4005356v-8.2071877H95.46698l4.5257492,5.4634895h-0.902977v-5.4634895h2.2742615v8.2071915
		h-1.9107895l-4.5257492-5.4634895h0.902977v5.4634895C95.830452,48.4005394,93.5561829,48.4005394,93.5561829,48.4005356z"/>
	<path class="st1" d="M103.0064697,48.4005356v-8.2071877h3.8802719c0.9069672,0,1.7045593,0.1686401,2.3916168,0.5047607
		c0.6882095,0.3361282,1.2260132,0.808979,1.6122665,1.4185715c0.3873978,0.6095886,0.5799637,1.3365288,0.5799637,2.1808395
		c0,0.8363304-0.1925583,1.5610008-0.5799637,2.1739998c-0.386261,0.6141396-0.924057,1.0892792-1.6122665,1.4254112
		c-0.6870728,0.3361206-1.4846497,0.5036201-2.3916168,0.5036201h-3.8802719V48.4005356z M105.3280334,46.5478554h1.4652863
		c0.4682999,0,0.8773499-0.0877304,1.2248688-0.2631989c0.3475189-0.176609,0.6198425-0.4341202,0.814682-0.7736588
		c0.1959763-0.3406792,0.2939682-0.7451706,0.2939682-1.2134705c0-0.4774094-0.0979919-0.8841782-0.2939682-1.2203102
		c-0.1948395-0.3349915-0.4671631-0.5913506-0.814682-0.7679596c-0.3475189-0.1754684-0.7565689-0.2631989-1.2248688-0.2631989
		h-1.4652863V46.5478554z"/>
	<path class="st1" d="M112.6897736,48.4005356v-8.2071877h1.9119263l3.4000015,5.5808411h-1.0083771l3.3054428-5.5808411h1.9119263
		l0.022789,8.2071915h-2.1341171l-0.022789-4.9598694h0.363472l-2.4736633,4.1508789h-1.0323105l-2.5443039-4.1508789h0.4455032
		v4.9598694C114.8352737,48.4005394,112.6897736,48.4005394,112.6897736,48.4005356z"/>
	<path class="st1" d="M122.8897934,48.4005356l3.6221924-8.2071877h2.2867966l3.6347351,8.2071915h-2.4155579l-2.8371429-7.0700607
		h0.9149475l-2.8382721,7.0700607C125.2574921,48.4005394,122.8897934,48.4005394,122.8897934,48.4005356z M124.8712311,46.8064957
		l0.5981903-1.7125397h4.0095978l0.5981903,1.7125397H124.8712311z"/>
	<path class="st1" d="M133.0898132,48.4005356v-8.2071877h3.8808441c0.9069672,0,1.7045593,0.1686401,2.3916168,0.5047607
		c0.6882172,0.3361282,1.2260132,0.808979,1.6122742,1.4185715c0.3874054,0.6095886,0.5799561,1.3365288,0.5799561,2.1808395
		c0,0.8363304-0.1925507,1.5610008-0.5799561,2.1739998c-0.386261,0.6141396-0.924057,1.0892792-1.6122742,1.4254112
		c-0.6870575,0.3361206-1.4846497,0.5036201-2.3916168,0.5036201h-3.8808441V48.4005356z M135.4119415,46.5478554h1.4652863
		c0.4682922,0,0.8773346-0.0877304,1.2248688-0.2631989c0.3475189-0.176609,0.6198273-0.4341202,0.8146667-0.7736588
		c0.1959839-0.3406792,0.2939758-0.7451706,0.2939758-1.2134705c0-0.4774094-0.0979919-0.8841782-0.2939758-1.2203102
		c-0.1948395-0.3349915-0.4671478-0.5913506-0.8146667-0.7679596c-0.3475342-0.1754684-0.7565765-0.2631989-1.2248688-0.2631989
		h-1.4652863V46.5478554z"/>
	<path class="st1" d="M142.7736816,48.4005356v-8.2071877h6.4365387v1.7945709h-4.1383362v4.6191788h4.2910156v1.7934418
		C149.3628998,48.4005394,142.7736816,48.4005394,142.7736816,48.4005356z M144.9078064,45.1064949v-1.735321h3.8101959v1.735321
		H144.9078064z"/>
	<path class="st1" d="M151.6029968,48.5065041c-0.3748779,0-0.6916351-0.1253395-0.9502716-0.3760109
		c-0.2575073-0.2495308-0.386261-0.5662918-0.386261-0.949131c0-0.3987885,0.1287537-0.7166901,0.386261-0.9559708
		c0.2586365-0.2381401,0.5753937-0.3577805,0.9502716-0.3577805c0.3748627,0,0.6916199,0.1196404,0.9491272,0.3577805
		c0.2586365,0.2392807,0.3873901,0.5571709,0.3873901,0.9559708c0,0.3828392-0.1287537,0.6996002-0.3873901,0.949131
		C152.2946167,48.3811646,151.9778595,48.5065041,151.6029968,48.5065041z"/>
	<path class="st1" d="M157.9449615,48.5646133c-0.6483307,0-1.2476654-0.1036911-1.7991333-0.3110619
		c-0.5514832-0.2062302-1.0277557-0.501339-1.4299622-0.8841896c-0.4033508-0.3839798-0.7178345-0.8351898-0.9445801-1.3547592
		c-0.2267303-0.5195694-0.3395386-1.0926895-0.3395386-1.7170906c0-0.6255417,0.1128082-1.1986618,0.3395386-1.7182312
		c0.2267456-0.5195694,0.5412292-0.9707794,0.9445801-1.3536186c0.4022064-0.3828392,0.878479-0.6779518,1.4299622-0.8853302
		c0.5514679-0.2073708,1.1508026-0.3110619,1.7991333-0.3110619c0.7588501,0,1.4367981,0.1333084,2.0349884,0.3987999
		c0.5970459,0.26548,1.0961151,0.6483192,1.4949036,1.1485291l-1.4778137,1.3365288
		c-0.2654877-0.3121986-0.5571747-0.5503387-0.8727875-0.7144089c-0.3167572-0.1640701-0.6711121-0.246109-1.0619354-0.246109
		c-0.3361206,0-0.6448975,0.0546913-0.9263458,0.1640701c-0.2814331,0.1093903-0.5207062,0.2677689-0.720108,0.473999
		c-0.1993866,0.2073708-0.3566284,0.455761-0.4694366,0.7451706c-0.1139374,0.2894096-0.1697693,0.609581-0.1697693,0.9616585
		c0,0.3509407,0.0558319,0.6722603,0.1697693,0.9605293c0.1128082,0.2894096,0.27005,0.5377998,0.4694366,0.7451782
		c0.1994019,0.2073708,0.4386749,0.3657494,0.720108,0.473999c0.2814484,0.1105194,0.5902252,0.1652107,0.9263458,0.1652107
		c0.3908234,0,0.7451782-0.0820389,1.0619354-0.2472496c0.3156128-0.1640701,0.6072998-0.4022102,0.8727875-0.7144089
		l1.4778137,1.3365288c-0.3987885,0.4922295-0.8978577,0.8727913-1.4949036,1.1428299
		C159.3817596,48.4301643,158.7038116,48.5646133,157.9449615,48.5646133z"/>
	<path class="st1" d="M166.2227936,48.5646133c-0.6574402,0-1.2624664-0.1059608-1.8173676-0.316761
		c-0.5560303-0.2107887-1.0379944-0.5093193-1.4481964-0.8967209c-0.4101868-0.386261-0.7292175-0.8386116-0.9559631-1.3536186
		c-0.2267456-0.5161591-0.3395386-1.0824394-0.3395386-1.7000008s0.112793-1.1849899,0.3395386-1.7000008
		c0.2267456-0.5161591,0.5457764-0.9673615,0.9559631-1.3547592c0.410202-0.386261,0.8921661-0.6859207,1.4481964-0.8967209
		c0.5549011-0.2107887,1.1599274-0.316761,1.8173676-0.316761c0.6642761,0,1.2715759,0.1059608,1.8230591,0.316761
		c0.5503387,0.2107887,1.0288849,0.5104599,1.4356537,0.8967209c0.4067841,0.3874016,0.7246704,0.8386116,0.9559784,1.3547592
		c0.2301636,0.5150108,0.3452301,1.0824394,0.3452301,1.7000008s-0.1150665,1.1861305-0.3452301,1.7056999
		c-0.231308,0.5195694-0.5491943,0.9707794-0.9559784,1.3536186c-0.4067688,0.3828392-0.8853149,0.6802292-1.4356537,0.8910217
		C167.4943695,48.4586449,166.8870697,48.5646133,166.2227936,48.5646133z M166.2227936,46.6424255
		c0.3121948,0,0.6027527-0.0546913,0.8727875-0.1652107c0.27005-0.1082497,0.5047607-0.2666206,0.7041626-0.473999
		c0.1982574-0.2073708,0.3554993-0.455761,0.4682922-0.7451782c0.1128082-0.288269,0.1697693-0.609581,0.1697693-0.9605293
		c0-0.3600502-0.0569611-0.6825104-0.1697693-0.9673615c-0.112793-0.2859917-0.2700348-0.5321007-0.4682922-0.7394791
		c-0.1994019-0.2062302-0.4341125-0.3646088-0.7041626-0.473999c-0.2700348-0.1093788-0.5605927-0.1640701-0.8727875-0.1640701
		c-0.3133392,0-0.6038971,0.0546913-0.8739319,0.1640701c-0.2700348,0.1093903-0.5036163,0.2677689-0.7030182,0.473999
		c-0.1994019,0.2073708-0.3566284,0.4534798-0.4694366,0.7394791c-0.1139374,0.2848511-0.1697693,0.6073112-0.1697693,0.9673615
		c0,0.3509407,0.0558319,0.6722603,0.1697693,0.9605293c0.1128082,0.2894096,0.2700348,0.5377998,0.4694366,0.7451782
		c0.1994019,0.2073708,0.4329834,0.3657494,0.7030182,0.473999
		C165.6188965,46.5877342,165.9094543,46.6424255,166.2227936,46.6424255z"/>
	<path class="st1" d="M172.0018921,48.4005356v-8.2071877h1.9119415l3.3999939,5.5808411h-1.0083771l3.3054352-5.5808411h1.9119415
		l0.0227814,8.2071915h-2.1341095l-0.0227966-4.9598694h0.3634796l-2.4736633,4.1508789h-1.0323181l-2.5442963-4.1508789h0.4454956
		v4.9598694C174.1473999,48.4005394,172.0018921,48.4005394,172.0018921,48.4005356z"/>
</g>
</svg>
