<?xml version="1.0" encoding="utf-8"?>
<!-- Generator: Adobe Illustrator 24.3.0, SVG Export Plug-In . SVG Version: 6.00 Build 0)  -->
<svg version="1.1" id="Layer_1" xmlns="http://www.w3.org/2000/svg" xmlns:xlink="http://www.w3.org/1999/xlink" x="0px" y="0px"
	 viewBox="0 0 360 100" style="enable-background:new 0 0 360 100;" xml:space="preserve">
<style type="text/css">
	.st0{fill:#F57E20;}
	.st1{fill:#333333;}
</style>
<g>
	<g>
		<path class="st0" d="M10.9,60.5l5-18.8l6.2-23.3h14.5l-5.8,21.8l-3.6,13.6l-1.1,4.2c-0.4,1.5-1.8,2.6-3.4,2.6H10.9z"/>
		<path class="st0" d="M69,60.5L58.1,19.8l-0.4-1.4H44l-0.4,1.4v0l-6.3,23.3l-4.6,17.4l-0.4,1.3c0,0,0,0,0,0
			c-0.6,3.3-3.5,5.7-6.9,5.7H9L7.8,72l-2.6,9.5h20.2c0.6,0,1.1,0,1.6-0.1c8.4-0.6,15.5-6.3,18.2-14c0.2-0.6,0.4-1.2,0.5-1.8l1.4-5.3
			L50.8,47l3.6,13.6l1.9,7l3.8,14h14.5L69,60.5z"/>
	</g>
	<g>
		<g>
			<path class="st1" d="M111.2,25.6v19h-5.5v-7.4h-7.5v7.4h-5.5v-19h5.5v7.2h7.5v-7.2H111.2z"/>
			<path class="st1" d="M127.1,31.4c1.3,1.1,2,2.8,2,5.1v8.2h-4.9v-1.9c-0.8,1.4-2.3,2.1-4.5,2.1c-1.2,0-2.2-0.2-3-0.6
				c-0.9-0.4-1.5-0.9-1.9-1.6c-0.4-0.7-0.7-1.5-0.7-2.3c0-1.4,0.5-2.5,1.6-3.3c1.1-0.8,2.8-1.2,5.1-1.2h3c-0.1-1.6-1.2-2.3-3.2-2.3
				c-0.7,0-1.5,0.1-2.2,0.3c-0.7,0.2-1.4,0.5-1.9,0.9l-1.8-3.5c0.8-0.5,1.9-1,3.1-1.3c1.2-0.3,2.4-0.4,3.6-0.4
				C123.8,29.7,125.7,30.3,127.1,31.4z M122.7,41.2c0.5-0.3,0.8-0.7,1-1.3v-1.3h-2.3c-1.5,0-2.3,0.5-2.3,1.5c0,0.5,0.2,0.8,0.5,1.1
				c0.4,0.3,0.8,0.4,1.4,0.4C121.7,41.7,122.3,41.5,122.7,41.2z"/>
			<path class="st1" d="M146.8,31.3c1.1,1.1,1.7,2.7,1.7,4.9v8.4h-5.3v-7.6c0-2-0.8-3-2.5-3c-0.9,0-1.6,0.3-2.2,0.9
				c-0.5,0.6-0.8,1.5-0.8,2.6v7.1h-5.3V29.9h5v1.6c0.6-0.6,1.3-1.1,2.1-1.4c0.8-0.3,1.7-0.5,2.7-0.5
				C144.1,29.7,145.6,30.2,146.8,31.3z"/>
			<path class="st1" d="M168.1,24.5v20.2h-5v-1.5c-1,1.1-2.5,1.7-4.4,1.7c-1.4,0-2.6-0.3-3.8-0.9c-1.1-0.6-2-1.5-2.7-2.7
				c-0.7-1.2-1-2.5-1-4s0.3-2.9,1-4c0.7-1.2,1.6-2,2.7-2.7s2.4-0.9,3.8-0.9c1.8,0,3.2,0.5,4.2,1.5v-6.7H168.1z M162,39.9
				c0.6-0.6,0.9-1.5,0.9-2.6c0-1.1-0.3-1.9-0.9-2.6c-0.6-0.6-1.3-0.9-2.3-0.9c-0.9,0-1.7,0.3-2.3,0.9c-0.6,0.6-0.9,1.5-0.9,2.6
				c0,1.1,0.3,2,0.9,2.6c0.6,0.6,1.4,0.9,2.3,0.9C160.6,40.8,161.4,40.5,162,39.9z"/>
			<path class="st1" d="M195.6,31.3c1.1,1.1,1.7,2.7,1.7,4.9v8.4H192v-7.6c0-1-0.2-1.8-0.6-2.3c-0.4-0.5-1-0.7-1.7-0.7
				c-0.8,0-1.4,0.3-1.9,0.8c-0.5,0.5-0.7,1.4-0.7,2.5v7.3h-5.3v-7.6c0-2-0.8-3-2.3-3c-0.8,0-1.5,0.3-2,0.8c-0.5,0.5-0.7,1.4-0.7,2.5
				v7.3h-5.3V29.9h5v1.6c0.6-0.6,1.2-1,2-1.3c0.8-0.3,1.6-0.4,2.5-0.4c1.1,0,2,0.2,2.8,0.6c0.8,0.4,1.5,1,2,1.7
				c0.6-0.7,1.3-1.3,2.3-1.7c0.9-0.4,1.9-0.6,3-0.6C193,29.7,194.5,30.2,195.6,31.3z"/>
			<path class="st1" d="M212.8,31.4c1.3,1.1,2,2.8,2,5.1v8.2h-4.9v-1.9c-0.8,1.4-2.2,2.1-4.5,2.1c-1.2,0-2.2-0.2-3-0.6
				c-0.9-0.4-1.5-0.9-1.9-1.6c-0.4-0.7-0.7-1.5-0.7-2.3c0-1.4,0.5-2.5,1.6-3.3c1.1-0.8,2.8-1.2,5.1-1.2h3c-0.1-1.6-1.2-2.3-3.2-2.3
				c-0.7,0-1.5,0.1-2.2,0.3c-0.7,0.2-1.4,0.5-1.9,0.9l-1.8-3.5c0.8-0.5,1.9-1,3.1-1.3c1.2-0.3,2.4-0.4,3.6-0.4
				C209.6,29.7,211.5,30.3,212.8,31.4z M208.5,41.2c0.5-0.3,0.8-0.7,1-1.3v-1.3h-2.3c-1.5,0-2.3,0.5-2.3,1.5c0,0.5,0.2,0.8,0.5,1.1
				c0.4,0.3,0.8,0.4,1.5,0.4C207.5,41.7,208,41.5,208.5,41.2z"/>
			<path class="st1" d="M234.4,24.5v20.2h-5v-1.5c-1,1.1-2.5,1.7-4.4,1.7c-1.4,0-2.6-0.3-3.8-0.9c-1.1-0.6-2-1.5-2.7-2.7
				c-0.7-1.2-1-2.5-1-4s0.3-2.9,1-4c0.7-1.2,1.6-2,2.7-2.7s2.4-0.9,3.8-0.9c1.8,0,3.2,0.5,4.2,1.5v-6.7H234.4z M228.3,39.9
				c0.6-0.6,0.9-1.5,0.9-2.6c0-1.1-0.3-1.9-0.9-2.6c-0.6-0.6-1.3-0.9-2.3-0.9c-0.9,0-1.7,0.3-2.3,0.9c-0.6,0.6-0.9,1.5-0.9,2.6
				c0,1.1,0.3,2,0.9,2.6c0.6,0.6,1.4,0.9,2.3,0.9C227,40.8,227.7,40.5,228.3,39.9z"/>
			<path class="st1" d="M253.2,38.6h-11c0.2,0.8,0.7,1.3,1.3,1.8c0.6,0.4,1.4,0.6,2.4,0.6c0.7,0,1.4-0.1,1.9-0.3
				c0.5-0.2,1.1-0.5,1.6-1l2.8,2.8c-1.5,1.6-3.6,2.4-6.4,2.4c-1.8,0-3.3-0.3-4.7-1c-1.3-0.7-2.4-1.6-3.1-2.7
				c-0.7-1.2-1.1-2.5-1.1-3.9c0-1.5,0.4-2.8,1.1-3.9c0.7-1.2,1.7-2.1,3-2.7c1.3-0.7,2.7-1,4.3-1c1.5,0,2.9,0.3,4.1,0.9
				c1.2,0.6,2.2,1.5,2.9,2.6s1.1,2.5,1.1,4.1C253.3,37.4,253.2,37.8,253.2,38.6z M243.2,34.1c-0.5,0.5-0.9,1.1-1,1.9h6.2
				c-0.1-0.8-0.5-1.4-1-1.9c-0.5-0.5-1.2-0.7-2-0.7S243.7,33.6,243.2,34.1z"/>
			<path class="st1" d="M277.1,30.6c1.1,0.6,2,1.5,2.7,2.7c0.7,1.2,1,2.5,1,4s-0.3,2.9-1,4c-0.7,1.2-1.6,2.1-2.7,2.7
				c-1.1,0.6-2.4,0.9-3.8,0.9c-2,0-3.5-0.6-4.5-1.7v1.5h-5V24.5h5.3v6.7c1-1,2.4-1.5,4.2-1.5C274.7,29.7,276,30,277.1,30.6z
				 M274.5,39.9c0.6-0.6,0.9-1.5,0.9-2.6c0-1.1-0.3-1.9-0.9-2.6c-0.6-0.6-1.4-0.9-2.3-0.9c-0.9,0-1.7,0.3-2.3,0.9
				c-0.6,0.6-0.9,1.5-0.9,2.6c0,1.1,0.3,2,0.9,2.6c0.6,0.6,1.4,0.9,2.3,0.9C273.2,40.8,273.9,40.5,274.5,39.9z"/>
			<path class="st1" d="M298.7,29.9l-6.5,15.3c-0.8,1.8-1.7,3.1-2.8,3.8c-1.1,0.7-2.4,1.1-4,1.1c-0.8,0-1.6-0.1-2.4-0.4
				c-0.8-0.2-1.5-0.6-2-1l1.8-3.6c0.3,0.3,0.7,0.5,1.1,0.6c0.4,0.2,0.8,0.2,1.3,0.2c0.5,0,0.9-0.1,1.2-0.3c0.3-0.2,0.6-0.5,0.8-1
				l-6.5-14.9h5.4l3.7,9l3.7-9H298.7z"/>
		</g>
		<g>
			<path class="st1" d="M105.7,60h4.9v7.9c-1.1,0.8-2.4,1.4-3.8,1.8c-1.4,0.4-2.9,0.6-4.3,0.6c-2,0-3.9-0.4-5.5-1.3
				c-1.6-0.8-2.9-2-3.8-3.5c-0.9-1.5-1.4-3.2-1.4-5.1c0-1.9,0.5-3.6,1.4-5.1c0.9-1.5,2.2-2.7,3.9-3.5c1.7-0.8,3.5-1.3,5.6-1.3
				c1.8,0,3.5,0.3,4.9,0.9c1.5,0.6,2.7,1.5,3.6,2.6l-3.5,3.1c-1.3-1.4-2.9-2.1-4.7-2.1c-1.7,0-3,0.5-4,1.5c-1,1-1.5,2.3-1.5,4
				c0,1.1,0.2,2,0.7,2.8c0.5,0.8,1.1,1.5,2,1.9c0.8,0.5,1.8,0.7,2.9,0.7c1.1,0,2.1-0.2,3-0.6V60z"/>
			<path class="st1" d="M129.2,63.9h-11c0.2,0.8,0.7,1.3,1.3,1.8c0.6,0.4,1.4,0.6,2.4,0.6c0.7,0,1.4-0.1,1.9-0.3s1.1-0.5,1.6-1
				l2.8,2.8c-1.5,1.6-3.6,2.4-6.4,2.4c-1.8,0-3.3-0.3-4.7-1c-1.3-0.7-2.4-1.6-3.1-2.7c-0.7-1.2-1.1-2.5-1.1-3.9
				c0-1.5,0.4-2.8,1.1-3.9c0.7-1.2,1.7-2.1,3-2.7c1.3-0.7,2.7-1,4.3-1c1.5,0,2.9,0.3,4.1,0.9c1.2,0.6,2.2,1.5,2.9,2.6
				c0.7,1.2,1.1,2.5,1.1,4.1C129.3,62.7,129.3,63.1,129.2,63.9z M119.2,59.3c-0.5,0.5-0.9,1.1-1,1.9h6.2c-0.1-0.8-0.5-1.4-1-1.9
				c-0.5-0.5-1.2-0.7-2.1-0.7C120.4,58.6,119.8,58.9,119.2,59.3z"/>
			<path class="st1" d="M135,69.2c-1.3-0.7-2.3-1.6-3.1-2.7c-0.7-1.2-1.1-2.5-1.1-3.9c0-1.5,0.4-2.8,1.1-3.9c0.7-1.2,1.7-2.1,3-2.7
				c1.3-0.6,2.8-1,4.4-1c1.6,0,3.1,0.3,4.4,1s2.3,1.5,3,2.7c0.7,1.2,1.1,2.5,1.1,3.9c0,1.5-0.4,2.8-1.1,3.9c-0.7,1.2-1.7,2.1-3,2.7
				c-1.3,0.7-2.8,1-4.4,1C137.7,70.2,136.3,69.9,135,69.2z M141.6,65.2c0.6-0.6,0.9-1.5,0.9-2.6c0-1.1-0.3-1.9-0.9-2.6
				c-0.6-0.6-1.4-0.9-2.3-0.9s-1.7,0.3-2.3,0.9c-0.6,0.6-0.9,1.5-0.9,2.6c0,1.1,0.3,2,0.9,2.6c0.6,0.6,1.4,0.9,2.3,0.9
				S141.1,65.8,141.6,65.2z"/>
			<path class="st1" d="M157.5,55.5c0.9-0.3,1.9-0.5,3-0.5v4.7c-0.5-0.1-0.9-0.1-1.2-0.1c-1.1,0-2,0.3-2.7,0.9c-0.6,0.6-1,1.5-1,2.7
				V70h-5.3V55.2h5V57C155.9,56.3,156.6,55.8,157.5,55.5z"/>
			<path class="st1" d="M178.8,55.2v12.1c0,2.7-0.8,4.8-2.3,6.2c-1.5,1.4-3.7,2.1-6.6,2.1c-1.5,0-2.9-0.2-4.2-0.5
				c-1.3-0.3-2.4-0.8-3.3-1.4l1.9-3.6c0.6,0.5,1.4,0.9,2.3,1.2c0.9,0.3,1.9,0.4,2.8,0.4c1.4,0,2.4-0.3,3.1-0.9c0.7-0.6,1-1.5,1-2.7
				v-0.5c-1,1.2-2.5,1.7-4.5,1.7c-1.3,0-2.6-0.3-3.7-0.9s-2-1.4-2.7-2.5c-0.7-1.1-1-2.3-1-3.7c0-1.4,0.3-2.6,1-3.7
				c0.7-1.1,1.6-1.9,2.7-2.5c1.1-0.6,2.4-0.9,3.7-0.9c2.2,0,3.7,0.7,4.7,2v-1.8H178.8z M172.6,64.3c0.6-0.6,0.9-1.3,0.9-2.2
				c0-0.9-0.3-1.6-0.9-2.2c-0.6-0.6-1.4-0.8-2.4-0.8c-1,0-1.8,0.3-2.4,0.8c-0.6,0.6-0.9,1.3-0.9,2.2c0,0.9,0.3,1.6,0.9,2.2
				c0.6,0.6,1.4,0.8,2.4,0.8C171.2,65.1,172,64.8,172.6,64.3z"/>
			<path class="st1" d="M182.5,52.8c-0.6-0.5-0.9-1.2-0.9-2c0-0.8,0.3-1.4,0.9-2c0.6-0.5,1.4-0.8,2.3-0.8c1,0,1.7,0.2,2.3,0.7
				c0.6,0.5,0.9,1.1,0.9,1.9c0,0.8-0.3,1.5-0.9,2c-0.6,0.5-1.4,0.8-2.3,0.8C183.8,53.6,183.1,53.3,182.5,52.8z M182.2,55.2h5.3V70
				h-5.3V55.2z"/>
			<path class="st1" d="M203.1,56.6c1.3,1.1,2,2.8,2,5.1V70h-4.9v-1.9c-0.8,1.4-2.2,2.1-4.5,2.1c-1.2,0-2.2-0.2-3-0.6
				c-0.9-0.4-1.5-0.9-1.9-1.6c-0.4-0.7-0.7-1.5-0.7-2.3c0-1.4,0.5-2.5,1.6-3.3c1.1-0.8,2.8-1.2,5.1-1.2h3c-0.1-1.6-1.2-2.3-3.2-2.3
				c-0.7,0-1.5,0.1-2.2,0.3c-0.7,0.2-1.4,0.5-1.9,0.9l-1.8-3.5c0.8-0.5,1.9-1,3.1-1.3c1.2-0.3,2.4-0.4,3.6-0.4
				C199.8,55,201.8,55.5,203.1,56.6z M198.8,66.5c0.5-0.3,0.8-0.7,1-1.3V64h-2.3c-1.5,0-2.3,0.5-2.3,1.5c0,0.5,0.2,0.8,0.5,1.1
				c0.4,0.3,0.8,0.4,1.5,0.4C197.8,66.9,198.3,66.8,198.8,66.5z"/>
		</g>
	</g>
</g>
<image style="overflow:visible;enable-background:new    ;" width="24" height="34" xlink:href="EA400939.jpeg"  transform="matrix(0.9583 0 0 0.9583 187.64 -47.681)">
</image>
</svg>
